<svg width="30" height="30" viewBox="0 0 30 30" fill="none" xmlns="http://www.w3.org/2000/svg">
<g clip-path="url(#clip0_158_478)">
<path d="M20.2431 8.58362C20.2431 8.4363 20.1226 8.31576 19.9753 8.31576H18.1505C18.05 8.31576 17.9563 8.37268 17.9128 8.46308L15.0768 14.1149H14.9663L12.1304 8.46308C12.1082 8.41901 12.0742 8.38193 12.0323 8.35593C11.9903 8.32994 11.942 8.31603 11.8927 8.31576H10.0277C9.9842 8.31576 9.94067 8.32581 9.90049 8.34924C9.76991 8.41956 9.72304 8.58362 9.79335 8.71085L13.2721 15.126H11.3637C11.2163 15.126 11.0958 15.2466 11.0958 15.3939V16.3013C11.0958 16.4486 11.2163 16.5691 11.3637 16.5691H13.9083V17.8749H11.3637C11.2163 17.8749 11.0958 17.9954 11.0958 18.1428V19.0501C11.0958 19.1975 11.2163 19.318 11.3637 19.318H13.9083V21.4408C13.9083 21.5881 14.0288 21.7086 14.1762 21.7086H15.8469C15.9942 21.7086 16.1148 21.5881 16.1148 21.4408V19.3146H18.6695C18.8168 19.3146 18.9373 19.1941 18.9373 19.0468V18.1394C18.9373 17.9921 18.8168 17.8716 18.6695 17.8716H16.1148V16.5658H18.6695C18.8168 16.5658 18.9373 16.4452 18.9373 16.2979V15.3905C18.9373 15.2432 18.8168 15.1227 18.6695 15.1227H16.7409L20.213 8.7075C20.2297 8.67067 20.2431 8.62715 20.2431 8.58362ZM3.1438 14.751C3.20669 11.6995 4.44863 8.79083 6.6092 6.63496C7.69737 5.54679 8.96299 4.68964 10.3726 4.09366C11.8324 3.47759 13.3826 3.16286 14.9797 3.16286C16.5802 3.16286 18.1304 3.47424 19.5869 4.09366C20.9965 4.68964 22.2621 5.54679 23.3503 6.63496C23.6851 6.96978 23.9965 7.32134 24.2844 7.6863L22.6103 8.99545C22.5704 9.0263 22.5401 9.06778 22.5227 9.11512C22.5054 9.16246 22.5017 9.21374 22.5122 9.26306C22.5227 9.31237 22.5469 9.35773 22.582 9.3939C22.6172 9.43008 22.6618 9.4556 22.7108 9.46755L27.9608 10.7499C28.1282 10.7901 28.2922 10.6629 28.2922 10.4921L28.319 5.08473C28.319 4.8604 28.0612 4.73317 27.8871 4.8738L26.2867 6.12603C23.6617 2.76777 19.5735 0.614868 14.9831 0.614868C7.13152 0.614868 0.746474 6.91286 0.602501 14.7376C0.601607 14.7734 0.607875 14.8089 0.620935 14.8422C0.633996 14.8755 0.653584 14.9058 0.678547 14.9314C0.703509 14.957 0.733341 14.9773 0.766283 14.9912C0.799225 15.0051 0.834612 15.0122 0.870358 15.0122H2.87929C3.02326 15.0122 3.14045 14.895 3.1438 14.751ZM29.1293 15.0122H27.1204C26.9764 15.0122 26.8559 15.1294 26.8525 15.2734C26.7896 18.3249 25.5477 21.2336 23.3871 23.3894C22.3089 24.4721 21.0308 25.3352 19.6237 25.9307C18.1639 26.5468 16.6137 26.8615 15.0166 26.8615C13.4195 26.8615 11.8659 26.5501 10.4094 25.9307C9.00231 25.3352 7.7242 24.4721 6.64603 23.3894C6.31121 23.0546 5.99982 22.703 5.71188 22.3381L7.38264 21.0289C7.42252 20.9981 7.45288 20.9566 7.47023 20.9093C7.48759 20.8619 7.49123 20.8106 7.48073 20.7613C7.47024 20.712 7.44604 20.6667 7.41092 20.6305C7.3758 20.5943 7.33117 20.5688 7.28219 20.5568L2.03219 19.2745C1.86478 19.2343 1.70072 19.3615 1.70072 19.5323L1.67393 24.9463C1.67393 25.1707 1.93174 25.2979 2.10585 25.1573L3.7063 23.905C6.33799 27.2566 10.4262 29.4095 15.0166 29.4095C22.8681 29.4095 29.2532 23.1115 29.3971 15.2867C29.398 15.251 29.3918 15.2155 29.3787 15.1822C29.3657 15.1489 29.3461 15.1186 29.3211 15.093C29.2961 15.0674 29.2663 15.0471 29.2334 15.0332C29.2004 15.0193 29.165 15.0122 29.1293 15.0122Z" fill="black" fill-opacity="0.85"/>
</g>
<defs>
<clipPath id="clip0_158_478">
<rect width="30" height="30" fill="white"/>
</clipPath>
</defs>
</svg>
